<svg width="16" height="16" viewBox="0 0 16 16" fill="none" xmlns="http://www.w3.org/2000/svg">
<mask id="mask0_19_69" style="mask-type:luminance" maskUnits="userSpaceOnUse" x="0" y="0" width="16" height="16">
<path d="M16 0H0V16H16V0Z" fill="white"/>
</mask>
<g mask="url(#mask0_19_69)">
<path d="M11.5594 9.94375C12.9437 11.6406 13.5812 13.0312 13.2594 13.6531C13.0125 14.125 11.4875 15.0469 10.3656 15.4C9.4406 15.6906 8.2281 15.8156 7.2281 15.7187C6.0344 15.6031 4.825 15.175 3.7875 14.5C2.9156 13.9312 2.7187 13.6969 2.7187 13.2312C2.7187 12.2969 3.7469 10.6594 5.5062 8.79062C6.5062 7.73125 7.8969 6.4875 8.05 6.52187C8.3437 6.5875 10.6844 8.86875 11.5594 9.94375ZM5.8937 4.49375C4.9656 3.65312 4.0781 2.80937 3.1937 2.5125C2.7187 2.35312 2.6844 2.3625 2.2969 2.76562C1.38436 3.71562 0.624987 5.25625 0.412487 6.59062C0.243737 7.65937 0.221858 7.95937 0.281238 8.48125C0.456238 10.0594 0.821857 11.15 1.54686 12.2594C1.84374 12.7156 1.92499 12.8 1.83749 12.5687C1.70624 12.225 1.82811 11.3969 2.1344 10.5687C2.5812 9.35 3.8187 7.04062 5.8937 4.49375ZM15.6312 6.47812C15.1031 3.97812 13.5219 2.40625 13.3 2.40625C13.0719 2.40625 12.5437 2.60937 12.175 2.84062C11.4469 3.29375 10.8937 3.82187 10.1656 4.49062C11.4906 6.15625 13.3594 8.84687 14.0062 10.8125C14.2187 11.4594 14.3094 12.0969 14.2375 12.4469C14.1844 12.7125 14.1844 12.7125 14.2812 12.5906C14.4719 12.35 14.9031 11.6125 15.075 11.2312C15.3062 10.725 15.5437 9.975 15.6562 9.39687C15.7906 8.69375 15.7781 7.18437 15.6312 6.47812ZM4.4156 1.34375C5.9062 1.26562 7.8437 2.42187 7.9875 2.45C8.0094 2.45312 8.3125 2.31875 8.6625 2.14687C10.6594 1.175 11.6 1.34062 12.0187 1.35937C10.0219 0.131247 7.2469 -0.203128 4.7094 0.993747C3.9781 1.34062 3.9594 1.36562 4.4156 1.34375Z" fill="#898989"/>
</g>
</svg>
