<svg width="208" height="40" viewBox="0 0 208 40" fill="none" xmlns="http://www.w3.org/2000/svg">
<path d="M65.4102 29.4336C60.3828 29.4336 57.3008 26.0469 57.3008 20.5391V20.5156C57.3008 15.0898 60.4062 11.6562 65.3281 11.6562C69.3242 11.6562 72.2422 13.9531 72.7461 17.3281L72.7695 17.4453H69.2539L69.2305 17.3281C68.75 15.6523 67.3086 14.6562 65.3281 14.6562C62.5977 14.6562 60.9102 16.8828 60.9102 20.4805V20.5039C60.9102 24.1719 62.6797 26.4336 65.4688 26.4336C67.7891 26.4336 69.3828 25.0156 69.4531 22.8828L69.4648 22.5664H65.8086V19.9883H72.9102V22.1328C72.9102 26.6211 70.0273 29.4336 65.4102 29.4336ZM79.3672 29.1992C76.9062 29.1992 75.1602 27.6758 75.1602 25.332V25.3086C75.1602 22.9883 76.9531 21.6289 80.1641 21.4414L83.2812 21.2539V20.1875C83.2812 19.0742 82.5195 18.4414 81.1133 18.4414C79.8828 18.4414 79.0977 18.875 78.8281 19.6367L78.8047 19.6836H75.6406L75.6523 19.5781C75.9219 17.3164 78.0547 15.8164 81.3008 15.8164C84.7227 15.8164 86.6562 17.4336 86.6562 20.1875V29H83.2812V27.2891H83.0703C82.4141 28.4844 81.0547 29.1992 79.3672 29.1992ZM78.5 25.1211C78.5 26.1055 79.332 26.7031 80.5156 26.7031C82.0977 26.7031 83.2812 25.6602 83.2812 24.3008V23.3516L80.6797 23.5156C79.2148 23.6094 78.5 24.1602 78.5 25.0977V25.1211ZM90.0078 29V16.0977H93.4297V18.1133H93.6406C94.1914 16.6602 95.5273 15.8164 97.2148 15.8164C98.9727 15.8164 100.273 16.707 100.801 18.1953H101.012C101.598 16.7656 103.098 15.8164 104.902 15.8164C107.469 15.8164 109.074 17.4805 109.074 20.1406V29H105.652V20.9961C105.652 19.4375 104.949 18.6523 103.52 18.6523C102.137 18.6523 101.246 19.6719 101.246 21.0664V29H97.8242V20.8438C97.8242 19.4609 97.0391 18.6523 95.7031 18.6523C94.3672 18.6523 93.4297 19.7422 93.4297 21.2188V29H90.0078ZM118.062 29.2695C114.137 29.2695 111.758 26.7031 111.758 22.5664V22.5547C111.758 18.4531 114.16 15.8164 117.922 15.8164C121.684 15.8164 124.027 18.3945 124.027 22.2969V23.3633H115.145C115.18 25.4844 116.316 26.7148 118.133 26.7148C119.633 26.7148 120.465 25.918 120.699 25.4258L120.734 25.3555H123.922L123.898 25.4727C123.5 27.0898 121.836 29.2695 118.062 29.2695ZM117.98 18.3828C116.492 18.3828 115.391 19.3906 115.18 21.2188H120.746C120.535 19.3438 119.469 18.3828 117.98 18.3828Z" fill="white"/>
<path d="M134.352 29.4336C129.453 29.4336 126.418 26.0352 126.418 20.5508V20.5273C126.418 15.043 129.441 11.6562 134.352 11.6562C138.359 11.6562 141.359 14.2109 141.688 17.7852V17.9258H138.242V17.8438C137.879 15.9453 136.367 14.6562 134.352 14.6562C131.691 14.6562 130.039 16.8945 130.039 20.5273V20.5508C130.039 24.1836 131.691 26.4336 134.363 26.4336C136.391 26.4336 137.855 25.25 138.23 23.4453L138.254 23.3516H141.699L141.688 23.4805C141.324 27.0195 138.43 29.4336 134.352 29.4336ZM150.289 29.2695C146.363 29.2695 143.984 26.7031 143.984 22.5664V22.5547C143.984 18.4531 146.387 15.8164 150.148 15.8164C153.91 15.8164 156.254 18.3945 156.254 22.2969V23.3633H147.371C147.406 25.4844 148.543 26.7148 150.359 26.7148C151.859 26.7148 152.691 25.918 152.926 25.4258L152.961 25.3555H156.148L156.125 25.4727C155.727 27.0898 154.062 29.2695 150.289 29.2695ZM150.207 18.3828C148.719 18.3828 147.617 19.3906 147.406 21.2188H152.973C152.762 19.3438 151.695 18.3828 150.207 18.3828ZM159.055 29V16.0977H162.477V18.0898H162.688C163.273 16.6953 164.551 15.8164 166.391 15.8164C169.262 15.8164 170.809 17.5742 170.809 20.6562V29H167.387V21.4297C167.387 19.6133 166.637 18.6523 165.02 18.6523C163.438 18.6523 162.477 19.7891 162.477 21.5352V29H159.055ZM179.48 29.0469C176.34 29.0469 175.074 28.0273 175.074 25.5195V18.6758H173.082V16.0977H175.074V13.0156H178.531V16.0977H181.191V18.6758H178.531V24.7344C178.531 25.8945 179.023 26.4102 180.184 26.4102C180.629 26.4102 180.863 26.3867 181.191 26.3516V28.8945C180.77 28.9766 180.137 29.0469 179.48 29.0469ZM189.617 29.2695C185.691 29.2695 183.312 26.7031 183.312 22.5664V22.5547C183.312 18.4531 185.715 15.8164 189.477 15.8164C193.238 15.8164 195.582 18.3945 195.582 22.2969V23.3633H186.699C186.734 25.4844 187.871 26.7148 189.688 26.7148C191.188 26.7148 192.02 25.918 192.254 25.4258L192.289 25.3555H195.477L195.453 25.4727C195.055 27.0898 193.391 29.2695 189.617 29.2695ZM189.535 18.3828C188.047 18.3828 186.945 19.3906 186.734 21.2188H192.301C192.09 19.3438 191.023 18.3828 189.535 18.3828ZM198.383 29V16.0977H201.805V18.1016H202.016C202.426 16.707 203.598 15.8867 205.273 15.8867C205.73 15.8867 206.211 15.957 206.551 16.0508V19.0391C206.035 18.9219 205.508 18.8398 204.98 18.8398C203.035 18.8398 201.805 19.9531 201.805 21.7812V29H198.383Z" fill="#EF4423"/>
<path d="M18.5507 0.030022C17.132 0.120027 16.2737 0.256991 14.9648 0.601357C13.6088 0.957463 12.5428 1.36444 10.9477 2.14318C10.1286 2.54233 9.94052 2.65973 10.0071 2.72234C10.0307 2.74582 10.5284 2.7693 11.1829 2.78104C12.676 2.80452 13.1934 2.90235 14.9569 3.49325C16.4423 3.99024 17.3476 4.36982 18.9936 5.1916C19.5187 5.44988 19.9734 5.66511 20.0008 5.66511C20.0713 5.66511 20.9139 5.29335 21.7644 4.88246C24.1119 3.75153 26.2517 3.05105 28.0545 2.828C28.4582 2.77321 28.7834 2.76539 29.4732 2.77713C29.9631 2.78495 30.3667 2.78887 30.3667 2.78495C30.3667 2.76539 29.6613 2.35449 29.3086 2.17057C27.7606 1.35662 24.9231 0.421347 23.3124 0.190465C22.2229 0.0339352 19.7696 -0.0482431 18.5507 0.030022Z" fill="#868686"/>
<path d="M33.4628 5.5751C33.2277 5.61423 32.6594 5.79424 32.244 5.9586C30.7469 6.56124 29.2185 7.64912 26.8435 9.81707C26.338 10.2788 25.852 10.7171 25.7658 10.7954L25.609 10.9363L26.4124 11.9498C29.4144 15.7261 32.0441 19.8193 34.0468 23.8226C35.0775 25.8849 35.6027 27.2389 35.9083 28.5968C36.214 29.9664 36.265 30.7843 36.1043 31.6569C36.0024 32.2126 36.0259 32.197 36.6138 31.3165C37.3153 30.2716 38.1305 28.7768 38.5341 27.7946C38.9887 26.6871 39.5178 24.9692 39.753 23.8343C39.9528 22.8678 39.9763 22.5234 39.9959 20.4572C40.0234 17.4792 39.9215 16.5322 39.3611 14.5873C38.7379 12.4272 37.8679 10.5488 36.6569 8.73701C35.7437 7.37128 34.4387 5.90773 33.8861 5.62206C33.745 5.55162 33.6666 5.53988 33.4628 5.5751Z" fill="#AAAAAA"/>
<path d="M6.18217 5.69249C5.77066 5.89598 4.6067 7.16387 3.8464 8.23219C2.79608 9.7114 1.81632 11.6093 1.20102 13.3546C0.726812 14.6891 0.515182 15.6126 0.252604 17.4518C-0.0491654 19.5493 -0.0687608 20.1794 0.131112 21.7212C0.632754 25.6853 1.55766 28.2994 3.46625 31.1795C3.97181 31.9426 4.12857 32.15 4.16384 32.1187C4.1756 32.107 4.14033 31.9543 4.08546 31.7861C3.74058 30.7099 4.11289 28.5107 5.0378 26.1705C6.19392 23.2513 8.65119 18.9545 11.3514 15.1352C12.0294 14.1803 12.9661 12.9398 13.7813 11.9341C14.2202 11.3863 14.5729 10.9362 14.5651 10.9323C14.5572 10.9245 14.1026 10.5175 13.554 10.0245C11.661 8.3222 10.8067 7.62955 9.72501 6.91734C8.80011 6.30687 7.91048 5.88815 7.0718 5.66901C6.64854 5.55552 6.44475 5.56335 6.18217 5.69249Z" fill="#5F5F5F"/>
<path d="M19.9225 16.2739C19.2484 16.6261 17.0811 18.5397 14.9609 20.6529C10.0503 25.5523 6.92681 30.0173 6.44084 32.8387C6.2684 33.8484 6.43692 34.5332 7.01695 35.1554C7.84779 36.0398 10.0229 37.4446 11.8296 38.2547C13.9106 39.19 15.9799 39.7417 18.1981 39.953C18.8604 40.0157 20.8239 40.0157 21.5489 39.953C23.1675 39.8122 24.6763 39.5421 25.8991 39.1782C28.5875 38.376 32.4478 36.1611 33.4237 34.8658C33.6784 34.5214 33.7764 34.2358 33.8038 33.7427C33.8861 32.1657 32.6869 29.6181 30.4413 26.601C28.9912 24.6483 28.0036 23.5448 25.2367 20.7585C22.9245 18.4341 21.2393 16.8844 20.4359 16.3444C20.1733 16.1683 20.1341 16.1644 19.9225 16.2739Z" fill="#DBDBDB"/>
</svg>
