<svg width="24" height="24" viewBox="0 0 24 24" fill="none" xmlns="http://www.w3.org/2000/svg">
<path d="M5 21.1236V3C5 2.44772 5.44772 2 6 2H18C18.5523 2 19 2.44772 19 3V21.1236C19 21.5108 18.5789 21.7511 18.2456 21.554L12.5089 18.1629C12.195 17.9773 11.805 17.9773 11.4911 18.1629L5.75444 21.554C5.42113 21.7511 5 21.5108 5 21.1236Z" fill="#FF9526"/>
<path fill-rule="evenodd" clip-rule="evenodd" d="M6 2.75C5.86193 2.75 5.75 2.86193 5.75 3V20.6854L11.1095 17.5172C11.6588 17.1925 12.3412 17.1925 12.8905 17.5173L18.25 20.6854V3C18.25 2.86193 18.1381 2.75 18 2.75H6ZM18.6272 20.9084L18.6268 20.9081L18.6272 20.9084ZM5.37278 20.9084C5.3729 20.9083 5.37302 20.9083 5.37314 20.9082L5.37278 20.9084ZM4.25 3C4.25 2.0335 5.0335 1.25 6 1.25H18C18.9665 1.25 19.75 2.0335 19.75 3V21.1236C19.75 22.0916 18.6972 22.6922 17.8639 22.1997L12.1272 18.8085C12.0487 18.7621 11.9513 18.7621 11.8728 18.8085L6.13609 22.1997C5.30283 22.6922 4.25 22.0916 4.25 21.1236V3Z" fill="#FF9526"/>
</svg>
