<svg width="24" height="24" viewBox="0 0 24 24" fill="none" xmlns="http://www.w3.org/2000/svg">
<rect x="-0.05" y="0.05" width="17.9" height="17.9" rx="0.95" transform="matrix(-1 0 0 1 20.9 3)" stroke="black" stroke-opacity="0.25" stroke-width="0.1"/>
<rect x="-0.05" y="0.05" width="19.9" height="15.9" rx="0.95" transform="matrix(-1 0 0 1 21.9 4)" stroke="black" stroke-opacity="0.25" stroke-width="0.1"/>
<rect x="-0.05" y="0.05" width="15.9" height="19.9" rx="0.95" transform="matrix(-1 0 0 1 19.9 2)" stroke="black" stroke-opacity="0.25" stroke-width="0.1"/>
<circle cx="10" cy="10" r="9.95" transform="matrix(-1 0 0 1 22 2)" stroke="black" stroke-opacity="0.25" stroke-width="0.1"/>
<circle cx="5" cy="5" r="4.95" transform="matrix(-1 0 0 1 17 7)" stroke="black" stroke-opacity="0.25" stroke-width="0.1"/>
<path d="M23.95 0.05H16H12H8H0.0499992V8V12V16V23.95H8H12H16H23.95V16V12V8V0.05Z" stroke="black" stroke-opacity="0.25" stroke-width="0.1"/>
<path fill-rule="evenodd" clip-rule="evenodd" d="M15.5303 2.46967C15.2374 2.17678 14.7626 2.17678 14.4697 2.46967L5.46967 11.4697C5.17678 11.7626 5.17678 12.2374 5.46967 12.5303L14.4697 21.5303C14.7626 21.8232 15.2374 21.8232 15.5303 21.5303C15.8232 21.2374 15.8232 20.7626 15.5303 20.4697L7.06066 12L15.5303 3.53033C15.8232 3.23744 15.8232 2.76256 15.5303 2.46967Z" fill="white"/>
</svg>
