<svg width="16" height="16" viewBox="0 0 16 16" fill="none" xmlns="http://www.w3.org/2000/svg">
<mask id="mask0_19_75" style="mask-type:luminance" maskUnits="userSpaceOnUse" x="0" y="0" width="16" height="16">
<path d="M16 0H0V16H16V0Z" fill="white"/>
</mask>
<g mask="url(#mask0_19_75)">
<path d="M7.9 3.85313C7.9312 3.86876 7.9562 3.90626 7.9937 3.90626C8.0281 3.90626 8.0812 3.89376 8.0844 3.85938C8.0906 3.81563 8.025 3.78751 7.9844 3.76876C7.9312 3.74688 7.8625 3.73751 7.8125 3.76563C7.8 3.77188 7.7875 3.78751 7.7937 3.80001C7.8031 3.84063 7.8656 3.83438 7.9 3.85313ZM7.2156 3.90626C7.2531 3.90626 7.2781 3.86876 7.3094 3.85313C7.3437 3.83438 7.4062 3.84063 7.4187 3.80313C7.425 3.79063 7.4125 3.77501 7.4 3.76876C7.35 3.74063 7.2812 3.75001 7.2281 3.77188C7.1875 3.79063 7.1219 3.81876 7.1281 3.86251C7.1312 3.89376 7.1844 3.90938 7.2156 3.90626ZM14.125 12.6188C14.0125 12.4938 13.9594 12.2563 13.9 12.0031C13.8437 11.75 13.7781 11.4781 13.5719 11.3031C13.5312 11.2688 13.4906 11.2375 13.4469 11.2125C13.4062 11.1875 13.3625 11.1656 13.3187 11.15C13.6062 10.2969 13.4937 9.44688 13.2031 8.67813C12.8469 7.73751 12.225 6.91563 11.75 6.35313C11.2156 5.68126 10.6969 5.04376 10.7062 4.10313C10.7219 2.66876 10.8656 0.00313404 8.3375 9.03669e-06C5.1375 -0.00624096 5.9375 3.23126 5.9031 4.22501C5.85 4.95626 5.7031 5.53126 5.2 6.24688C4.6094 6.95001 3.7781 8.08438 3.3844 9.26876C3.1969 9.82813 3.1094 10.3969 3.1906 10.9344C2.9875 11.1156 2.8344 11.3938 2.6719 11.5656C2.5406 11.7 2.35 11.75 2.1406 11.825C1.93125 11.9 1.70312 12.0125 1.5625 12.2781C1.49687 12.4 1.475 12.5313 1.475 12.6656C1.475 12.7875 1.49375 12.9125 1.5125 13.0344C1.55 13.2875 1.59062 13.525 1.5375 13.6844C1.375 14.1344 1.35312 14.4469 1.46875 14.675C1.5875 14.9031 1.825 15.0031 2.0969 15.0594C2.6375 15.1719 3.3719 15.1438 3.95 15.45C4.5687 15.775 5.1969 15.8906 5.6969 15.775C6.0594 15.6938 6.3562 15.475 6.5062 15.1438C6.8969 15.1406 7.3281 14.975 8.0156 14.9375C8.4812 14.9 9.0656 15.1031 9.7375 15.0656C9.7562 15.1375 9.7812 15.2094 9.8156 15.275V15.2781C10.075 15.8 10.5594 16.0375 11.075 15.9969C11.5937 15.9563 12.1406 15.6531 12.5844 15.125C13.0094 14.6125 13.7094 14.4 14.175 14.1188C14.4062 13.9781 14.5937 13.8031 14.6094 13.5469C14.6219 13.2906 14.4719 13.0063 14.125 12.6188ZM7.9906 2.72813C8.2969 2.03438 9.0594 2.04688 9.3656 2.71563C9.5687 3.15938 9.4781 3.68126 9.2312 3.97813C9.1812 3.95313 9.0469 3.89688 8.8375 3.82501C8.8719 3.78751 8.9344 3.74063 8.9594 3.68126C9.1094 3.31251 8.9531 2.83751 8.675 2.82813C8.4469 2.81251 8.2406 3.16563 8.3062 3.54688C8.1781 3.48438 8.0125 3.43751 7.9 3.40938C7.8687 3.19376 7.8906 2.95313 7.9906 2.72813ZM6.7187 2.36876C7.0344 2.36876 7.3687 2.81251 7.3156 3.41563C7.2062 3.44688 7.0937 3.49376 6.9969 3.55938C7.0344 3.28126 6.8937 2.93126 6.6969 2.94688C6.4344 2.96876 6.3906 3.60938 6.6406 3.82501C6.6719 3.85001 6.7 3.81876 6.4562 3.99688C5.9687 3.54063 6.1281 2.36876 6.7187 2.36876ZM6.2937 4.26563C6.4875 4.12188 6.7187 3.95313 6.7344 3.93751C6.8812 3.80001 7.1562 3.49376 7.6062 3.49376C7.8281 3.49376 8.0937 3.56563 8.4156 3.77188C8.6125 3.90001 8.7687 3.90938 9.1219 4.06251C9.3844 4.17188 9.55 4.36563 9.45 4.63126C9.3687 4.85313 9.1062 5.08126 8.7406 5.19688C8.3937 5.30938 8.1219 5.69688 7.5469 5.66251C7.425 5.65626 7.3281 5.63126 7.2469 5.59688C6.9969 5.48751 6.8656 5.27188 6.6219 5.12813C6.3531 4.97813 6.2094 4.80313 6.1625 4.65001C6.1187 4.49688 6.1625 4.36876 6.2937 4.26563ZM6.3969 14.7031C6.3125 15.8 5.025 15.7781 4.0437 15.2656C3.1094 14.7719 1.9 15.0625 1.65312 14.5813C1.57812 14.4344 1.57812 14.1844 1.73437 13.7563V13.75C1.80937 13.5125 1.75312 13.25 1.71562 13.0031C1.67812 12.7594 1.65937 12.5344 1.74375 12.3781C1.85312 12.1688 2.0094 12.0938 2.2062 12.025C2.5281 11.9094 2.575 11.9188 2.8187 11.7156C2.9906 11.5375 3.1156 11.3125 3.2656 11.1531C3.425 10.9813 3.5781 10.9 3.8187 10.9375C4.0719 10.975 4.2906 11.15 4.5031 11.4375L5.1156 12.55C5.4125 13.1719 6.4625 14.0625 6.3969 14.7031ZM6.3531 13.8938C6.225 13.6875 6.0531 13.4688 5.9031 13.2813C6.125 13.2813 6.3469 13.2125 6.425 13.0031C6.4969 12.8094 6.425 12.5375 6.1937 12.225C5.7719 11.6563 4.9969 11.2094 4.9969 11.2094C4.575 10.9469 4.3375 10.625 4.2281 10.275C4.1187 9.92501 4.1344 9.54688 4.2187 9.17501C4.3812 8.45938 4.8 7.76251 5.0687 7.32501C5.1406 7.27188 5.0937 7.42501 4.7969 7.97501C4.5312 8.47813 4.0344 9.64063 4.7156 10.55C4.7344 9.90313 4.8875 9.24376 5.1469 8.62813C5.5219 7.77188 6.3125 6.28751 6.375 5.10626C6.4094 5.13126 6.5187 5.20626 6.5687 5.23438C6.7125 5.31876 6.8219 5.44376 6.9625 5.55626C7.35 5.86876 7.8531 5.84376 8.2875 5.59376C8.4812 5.48438 8.6375 5.35938 8.7844 5.31251C9.0937 5.21563 9.3406 5.04376 9.4812 4.84376C9.7219 5.79376 10.2844 7.16563 10.6437 7.83438C10.8344 8.19063 11.2156 8.94376 11.3812 9.85313C11.4844 9.85001 11.6 9.86563 11.7219 9.89688C12.1531 8.78126 11.3562 7.57813 10.9937 7.24376C10.8469 7.10001 10.8406 7.03751 10.9125 7.04063C11.3062 7.39063 11.825 8.09376 12.0125 8.88438C12.1 9.24688 12.1156 9.62501 12.025 10C12.5375 10.2125 13.1469 10.5594 12.9844 11.0875C12.9156 11.0844 12.8844 11.0875 12.8531 11.0875C12.9531 10.7719 12.7312 10.5375 12.1406 10.2719C11.5281 10.0031 11.0156 10.0031 10.9437 10.6625C10.5656 10.7938 10.3719 11.1219 10.275 11.5156C10.1875 11.8656 10.1625 12.2875 10.1375 12.7625C10.1219 13.0031 10.025 13.325 9.925 13.6688C8.9219 14.3844 7.5281 14.6969 6.3531 13.8938ZM14.3969 13.5344C14.3687 14.0594 13.1094 14.1563 12.4219 14.9875C12.0094 15.4781 11.5031 15.75 11.0594 15.7844C10.6156 15.8188 10.2312 15.6344 10.0062 15.1813C9.8594 14.8344 9.9312 14.4594 10.0406 14.0469C10.1562 13.6031 10.3281 13.1469 10.35 12.7781C10.375 12.3031 10.4031 11.8875 10.4812 11.5688C10.5625 11.2469 10.6875 11.0313 10.9094 10.9094C10.9187 10.9031 10.9312 10.9 10.9406 10.8938C10.9656 11.3063 11.1687 11.725 11.5281 11.8156C11.9219 11.9188 12.4875 11.5813 12.7281 11.3063C13.0094 11.2969 13.2187 11.2781 13.4344 11.4656C13.7437 11.7313 13.6562 12.4125 13.9687 12.7656C14.3 13.1281 14.4062 13.375 14.3969 13.5344ZM6.4156 4.64688C6.4781 4.70626 6.5625 4.78751 6.6656 4.86876C6.8719 5.03126 7.1594 5.20001 7.5187 5.20001C7.8812 5.20001 8.2219 5.01563 8.5125 4.86251C8.6656 4.78126 8.8531 4.64376 8.975 4.53751C9.0969 4.43126 9.1594 4.34063 9.0719 4.33126C8.9844 4.32188 8.9906 4.41251 8.8844 4.49063C8.7469 4.59063 8.5812 4.72188 8.45 4.79688C8.2187 4.92813 7.8406 5.11563 7.5156 5.11563C7.1906 5.11563 6.9312 4.96563 6.7375 4.81251C6.6406 4.73438 6.5594 4.65626 6.4969 4.59688C6.45 4.55313 6.4375 4.45313 6.3625 4.44376C6.3187 4.44063 6.3062 4.55938 6.4156 4.64688Z" fill="#898989"/>
</g>
</svg>
