<svg width="12" height="14" viewBox="0 0 12 14" fill="none" xmlns="http://www.w3.org/2000/svg">
<path d="M9.9594 7.39688C9.9531 6.25 10.4719 5.38437 11.5219 4.74687C10.9344 3.90625 10.0469 3.44375 8.875 3.35313C7.7656 3.26562 6.5531 4 6.1094 4C5.6406 4 4.5656 3.38438 3.7219 3.38438C1.9781 3.4125 0.125 4.775 0.125 7.54688C0.125 8.36563 0.275 9.2115 0.575 10.0844C0.975 11.2313 2.4187 14.0437 3.925 13.9969C4.7125 13.9781 5.2687 13.4375 6.2937 13.4375C7.2875 13.4375 7.8031 13.9969 8.6812 13.9969C10.2 13.975 11.5062 11.4187 11.8875 10.2688C9.85 9.3094 9.9594 7.45625 9.9594 7.39688ZM8.1906 2.26562C9.0437 1.25312 8.9656 0.33125 8.9406 0C8.1875 0.04375 7.3156 0.5125 6.8187 1.09063C6.2719 1.70938 5.95 2.475 6.0188 3.3375C6.8344 3.4 7.5781 2.98125 8.1906 2.26562Z" fill="#898989"/>
</svg>
