<svg width="16" height="16" viewBox="0 0 16 16" fill="none" xmlns="http://www.w3.org/2000/svg">
<mask id="mask0_19_63" style="mask-type:luminance" maskUnits="userSpaceOnUse" x="0" y="0" width="16" height="16">
<path d="M16 0H0V16H16V0Z" fill="white"/>
</mask>
<g mask="url(#mask0_19_63)">
<path d="M10.3333 0.666656H5.00001C4.55801 0.666656 4.13411 0.842251 3.82151 1.15481C3.50891 1.46737 3.33331 1.8913 3.33331 2.33332V13.6667C3.33331 14.1087 3.50891 14.5326 3.82151 14.8452C4.13411 15.1577 4.55801 15.3333 5.00001 15.3333H10.3333C10.7754 15.3333 11.1993 15.1577 11.5119 14.8452C11.8244 14.5326 12 14.1087 12 13.6667V2.33332C12 1.8913 11.8244 1.46737 11.5119 1.15481C11.1993 0.842251 10.7754 0.666656 10.3333 0.666656ZM7.66671 14.6667C7.11331 14.6667 6.66671 14.22 6.66671 13.6667C6.66671 13.1133 7.11331 12.6667 7.66671 12.6667C8.22001 12.6667 8.66671 13.1133 8.66671 13.6667C8.66671 14.22 8.22001 14.6667 7.66671 14.6667ZM10.6667 12H4.66671V2.66666H10.6667V12Z" fill="#898989"/>
</g>
</svg>
