<svg width="21" height="16" viewBox="0 0 21 16" fill="none" xmlns="http://www.w3.org/2000/svg">
<path fill-rule="evenodd" clip-rule="evenodd" d="M8 0H13C15.1217 0 17.1566 0.842855 18.6569 2.34315C20.1571 3.84344 21 5.87827 21 8C21 10.1217 20.1571 12.1566 18.6569 13.6569C17.1566 15.1571 15.1217 16 13 16H8C5.87827 16 3.84344 15.1571 2.34315 13.6569C0.842855 12.1566 0 10.1217 0 8C0 5.87827 0.842855 3.84344 2.34315 2.34315C3.84344 0.842855 5.87827 0 8 0ZM7.865 1.935C6.25646 1.935 4.71381 2.57399 3.5764 3.7114C2.43899 4.84881 1.8 6.39146 1.8 8C1.8 9.60854 2.43899 11.1512 3.5764 12.2886C4.71381 13.426 6.25646 14.065 7.865 14.065H12.985C14.5935 14.065 16.1362 13.426 17.2736 12.2886C18.411 11.1512 19.05 9.60854 19.05 8C19.05 6.39146 18.411 4.84881 17.2736 3.7114C16.1362 2.57399 14.5935 1.935 12.985 1.935H7.865ZM6.535 4.239H8.936L12.135 9.414V4.24H14.481V11.735H12.18L8.864 6.537V11.738H6.53L6.535 4.239Z" fill="#898989"/>
</svg>
