<svg width="16" height="16" viewBox="0 0 16 16" fill="none" xmlns="http://www.w3.org/2000/svg">
<mask id="mask0_19_81" style="mask-type:luminance" maskUnits="userSpaceOnUse" x="0" y="0" width="16" height="16">
<path d="M16 0H0V16H16V0Z" fill="white"/>
</mask>
<g mask="url(#mask0_19_81)">
<path d="M15.8583 11.2305C15.5444 11.625 14.7805 11.9055 14.7805 11.9055L9.0833 13.95V12.4417L13.275 10.9472C13.75 10.7778 13.825 10.5361 13.4361 10.4083C13.05 10.2805 12.35 10.3167 11.875 10.4889L9.0833 11.475V9.90833C9.7278 9.69166 10.3917 9.53055 11.1861 9.44166C12.3222 9.31666 13.7111 9.45833 14.8028 9.87222C16.0305 10.2611 16.1694 10.8361 15.8583 11.2305ZM9.625 8.6611V4.79999C9.625 4.34722 9.5417 3.93055 9.1167 3.8111C8.7917 3.70555 8.5889 4.00833 8.5889 4.4611V14.125L5.9833 13.2972V1.77777C7.0917 1.98333 8.7055 2.46944 9.5722 2.7611C11.7805 3.51944 12.5278 4.46388 12.5278 6.58888C12.5278 8.65833 11.25 9.44444 9.625 8.6611ZM1.19999 12.2833C-0.0611238 11.9278 -0.272234 11.1861 0.302766 10.7611C0.833316 10.3667 1.73888 10.0694 1.73888 10.0694L5.475 8.74166V10.2555L2.7861 11.2167C2.3111 11.3861 2.2389 11.6278 2.625 11.7555C3.0111 11.8833 3.7111 11.8472 4.1861 11.675L5.475 11.2055V12.5611C4.0417 12.8194 2.6583 12.7639 1.19999 12.2833Z" fill="#898989"/>
</g>
</svg>
